<svg width="178" height="169" viewBox="0 0 178 169" fill="none" xmlns="http://www.w3.org/2000/svg">
<path d="M0.768 161L9.984 138.6H12.544L21.696 161H17.728L10.56 142.856H11.904L4.672 161H0.768ZM5.312 156.68V153.48H17.184V156.68H5.312ZM29.9465 161.32C28.5598 161.32 27.3012 160.968 26.1705 160.264C25.0612 159.56 24.1758 158.611 23.5145 157.416C22.8745 156.2 22.5545 154.845 22.5545 153.352C22.5545 151.837 22.8745 150.483 23.5145 149.288C24.1758 148.072 25.0612 147.112 26.1705 146.408C27.3012 145.683 28.5598 145.32 29.9465 145.32C31.1198 145.32 32.1545 145.576 33.0505 146.088C33.9678 146.579 34.6932 147.261 35.2265 148.136C35.7598 149.011 36.0265 150.003 36.0265 151.112V155.528C36.0265 156.637 35.7598 157.629 35.2265 158.504C34.7145 159.379 33.9998 160.072 33.0825 160.584C32.1652 161.075 31.1198 161.32 29.9465 161.32ZM30.5225 157.992C31.3972 157.992 32.1545 157.8 32.7945 157.416C33.4558 157.011 33.9678 156.456 34.3305 155.752C34.6932 155.048 34.8745 154.237 34.8745 153.32C34.8745 152.403 34.6932 151.592 34.3305 150.888C33.9678 150.184 33.4558 149.64 32.7945 149.256C32.1545 148.851 31.3972 148.648 30.5225 148.648C29.6692 148.648 28.9118 148.851 28.2505 149.256C27.6105 149.64 27.0985 150.184 26.7145 150.888C26.3518 151.592 26.1705 152.403 26.1705 153.32C26.1705 154.237 26.3518 155.048 26.7145 155.752C27.0985 156.456 27.6105 157.011 28.2505 157.416C28.9118 157.8 29.6692 157.992 30.5225 157.992ZM38.1705 161H34.6505V156.872L35.2585 153.128L34.6505 149.416V137.96H38.1705V161ZM48.509 161.32C47.1223 161.32 45.8637 160.968 44.733 160.264C43.6237 159.56 42.7383 158.611 42.077 157.416C41.437 156.2 41.117 154.845 41.117 153.352C41.117 151.837 41.437 150.483 42.077 149.288C42.7383 148.072 43.6237 147.112 44.733 146.408C45.8637 145.683 47.1223 145.32 48.509 145.32C49.6823 145.32 50.717 145.576 51.613 146.088C52.5303 146.579 53.2557 147.261 53.789 148.136C54.3223 149.011 54.589 150.003 54.589 151.112V155.528C54.589 156.637 54.3223 157.629 53.789 158.504C53.277 159.379 52.5623 160.072 51.645 160.584C50.7277 161.075 49.6823 161.32 48.509 161.32ZM49.085 157.992C49.9597 157.992 50.717 157.8 51.357 157.416C52.0183 157.011 52.5303 156.456 52.893 155.752C53.2557 155.048 53.437 154.237 53.437 153.32C53.437 152.403 53.2557 151.592 52.893 150.888C52.5303 150.184 52.0183 149.64 51.357 149.256C50.717 148.851 49.9597 148.648 49.085 148.648C48.2317 148.648 47.4743 148.851 46.813 149.256C46.173 149.64 45.661 150.184 45.277 150.888C44.9143 151.592 44.733 152.403 44.733 153.32C44.733 154.237 44.9143 155.048 45.277 155.752C45.661 156.456 46.173 157.011 46.813 157.416C47.4743 157.8 48.2317 157.992 49.085 157.992ZM56.733 161H53.213V156.872L53.821 153.128L53.213 149.416V137.96H56.733V161ZM73.4778 161.32C72.0911 161.32 70.8324 160.968 69.7018 160.264C68.5924 159.56 67.7071 158.611 67.0458 157.416C66.4058 156.2 66.0858 154.845 66.0858 153.352C66.0858 151.837 66.4058 150.483 67.0458 149.288C67.7071 148.072 68.5924 147.112 69.7018 146.408C70.8324 145.683 72.0911 145.32 73.4778 145.32C74.6511 145.32 75.6858 145.576 76.5818 146.088C77.4991 146.579 78.2244 147.261 78.7578 148.136C79.2911 149.011 79.5578 150.003 79.5578 151.112V155.528C79.5578 156.637 79.2911 157.629 78.7578 158.504C78.2458 159.379 77.5311 160.072 76.6138 160.584C75.6964 161.075 74.6511 161.32 73.4778 161.32ZM74.0538 157.992C75.3551 157.992 76.4004 157.555 77.1898 156.68C78.0004 155.805 78.4058 154.685 78.4058 153.32C78.4058 152.403 78.2244 151.592 77.8618 150.888C77.4991 150.184 76.9871 149.64 76.3258 149.256C75.6858 148.851 74.9284 148.648 74.0538 148.648C73.2004 148.648 72.4431 148.851 71.7818 149.256C71.1418 149.64 70.6298 150.184 70.2458 150.888C69.8831 151.592 69.7018 152.403 69.7018 153.32C69.7018 154.237 69.8831 155.048 70.2458 155.752C70.6298 156.456 71.1418 157.011 71.7818 157.416C72.4431 157.8 73.2004 157.992 74.0538 157.992ZM78.1818 161V156.872L78.7898 153.128L78.1818 149.416V145.64H81.7018V161H78.1818ZM92.0403 161.32C90.6536 161.32 89.3949 160.968 88.2643 160.264C87.1549 159.56 86.2696 158.611 85.6083 157.416C84.9683 156.2 84.6483 154.845 84.6483 153.352C84.6483 151.837 84.9683 150.483 85.6083 149.288C86.2696 148.072 87.1549 147.112 88.2643 146.408C89.3949 145.683 90.6536 145.32 92.0403 145.32C93.2136 145.32 94.2483 145.576 95.1443 146.088C96.0616 146.579 96.7869 147.261 97.3203 148.136C97.8536 149.011 98.1203 150.003 98.1203 151.112V155.528C98.1203 156.637 97.8536 157.629 97.3203 158.504C96.8083 159.379 96.0936 160.072 95.1763 160.584C94.2589 161.075 93.2136 161.32 92.0403 161.32ZM92.6163 157.992C93.4909 157.992 94.2483 157.8 94.8883 157.416C95.5496 157.011 96.0616 156.456 96.4243 155.752C96.7869 155.048 96.9683 154.237 96.9683 153.32C96.9683 152.403 96.7869 151.592 96.4243 150.888C96.0616 150.184 95.5496 149.64 94.8883 149.256C94.2483 148.851 93.4909 148.648 92.6163 148.648C91.7629 148.648 91.0056 148.851 90.3443 149.256C89.7043 149.64 89.1923 150.184 88.8083 150.888C88.4456 151.592 88.2643 152.403 88.2643 153.32C88.2643 154.237 88.4456 155.048 88.8083 155.752C89.1923 156.456 89.7043 157.011 90.3443 157.416C91.0056 157.8 91.7629 157.992 92.6163 157.992ZM100.264 161H96.7443V156.872L97.3523 153.128L96.7443 149.416V137.96H100.264V161ZM110.603 161.32C109.216 161.32 107.957 160.968 106.827 160.264C105.717 159.56 104.832 158.611 104.171 157.416C103.531 156.2 103.211 154.845 103.211 153.352C103.211 151.837 103.531 150.483 104.171 149.288C104.832 148.072 105.717 147.112 106.827 146.408C107.957 145.683 109.216 145.32 110.603 145.32C111.776 145.32 112.811 145.576 113.707 146.088C114.624 146.579 115.349 147.261 115.883 148.136C116.416 149.011 116.683 150.003 116.683 151.112V155.528C116.683 156.637 116.416 157.629 115.883 158.504C115.371 159.379 114.656 160.072 113.739 160.584C112.821 161.075 111.776 161.32 110.603 161.32ZM111.179 157.992C112.053 157.992 112.811 157.8 113.451 157.416C114.112 157.011 114.624 156.456 114.987 155.752C115.349 155.048 115.531 154.237 115.531 153.32C115.531 152.403 115.349 151.592 114.987 150.888C114.624 150.184 114.112 149.64 113.451 149.256C112.811 148.851 112.053 148.648 111.179 148.648C110.325 148.648 109.568 148.851 108.907 149.256C108.267 149.64 107.755 150.184 107.371 150.888C107.008 151.592 106.827 152.403 106.827 153.32C106.827 154.237 107.008 155.048 107.371 155.752C107.755 156.456 108.267 157.011 108.907 157.416C109.568 157.8 110.325 157.992 111.179 157.992ZM118.827 161H115.307V156.872L115.915 153.128L115.307 149.416V137.96H118.827V161ZM122.733 161V145.64H126.253V161H122.733ZM126.253 152.456L125.037 151.848C125.037 149.907 125.464 148.339 126.317 147.144C127.192 145.928 128.504 145.32 130.253 145.32C131.021 145.32 131.715 145.459 132.333 145.736C132.952 146.013 133.528 146.461 134.061 147.08L131.757 149.448C131.48 149.149 131.171 148.936 130.829 148.808C130.488 148.68 130.093 148.616 129.645 148.616C128.664 148.616 127.853 148.925 127.213 149.544C126.573 150.163 126.253 151.133 126.253 152.456ZM142.432 161.32C140.896 161.32 139.509 160.979 138.272 160.296C137.056 159.592 136.085 158.632 135.36 157.416C134.656 156.2 134.304 154.835 134.304 153.32C134.304 151.805 134.656 150.451 135.36 149.256C136.064 148.04 137.013 147.08 138.208 146.376C139.424 145.672 140.768 145.32 142.24 145.32C143.669 145.32 144.928 145.651 146.016 146.312C147.125 146.973 147.989 147.88 148.608 149.032C149.248 150.184 149.568 151.496 149.568 152.968C149.568 153.224 149.546 153.491 149.504 153.768C149.482 154.024 149.44 154.312 149.376 154.632H136.768V151.752H147.552L146.24 152.904C146.197 151.965 146.016 151.176 145.696 150.536C145.376 149.896 144.917 149.405 144.32 149.064C143.744 148.723 143.029 148.552 142.176 148.552C141.28 148.552 140.501 148.744 139.84 149.128C139.178 149.512 138.666 150.056 138.304 150.76C137.941 151.443 137.76 152.264 137.76 153.224C137.76 154.184 137.952 155.027 138.336 155.752C138.72 156.477 139.264 157.043 139.968 157.448C140.672 157.832 141.482 158.024 142.4 158.024C143.189 158.024 143.914 157.885 144.576 157.608C145.258 157.331 145.834 156.925 146.304 156.392L148.544 158.664C147.797 159.539 146.89 160.2 145.824 160.648C144.757 161.096 143.626 161.32 142.432 161.32ZM157.414 161.32C156.56 161.32 155.739 161.213 154.95 161C154.16 160.765 153.435 160.445 152.774 160.04C152.112 159.613 151.536 159.101 151.046 158.504L153.286 156.264C153.819 156.883 154.427 157.352 155.11 157.672C155.814 157.971 156.603 158.12 157.478 158.12C158.267 158.12 158.864 158.003 159.27 157.768C159.675 157.533 159.878 157.192 159.878 156.744C159.878 156.275 159.686 155.912 159.302 155.656C158.918 155.4 158.416 155.187 157.798 155.016C157.2 154.824 156.56 154.632 155.878 154.44C155.216 154.248 154.576 153.992 153.958 153.672C153.36 153.331 152.87 152.872 152.486 152.296C152.102 151.72 151.91 150.973 151.91 150.056C151.91 149.075 152.134 148.232 152.582 147.528C153.051 146.824 153.702 146.28 154.534 145.896C155.387 145.512 156.4 145.32 157.574 145.32C158.811 145.32 159.899 145.544 160.838 145.992C161.798 146.419 162.598 147.069 163.238 147.944L160.998 150.184C160.55 149.629 160.038 149.213 159.462 148.936C158.886 148.659 158.224 148.52 157.478 148.52C156.774 148.52 156.23 148.627 155.846 148.84C155.462 149.053 155.27 149.363 155.27 149.768C155.27 150.195 155.462 150.525 155.846 150.76C156.23 150.995 156.72 151.197 157.318 151.368C157.936 151.539 158.576 151.731 159.238 151.944C159.92 152.136 160.56 152.413 161.158 152.776C161.776 153.117 162.278 153.587 162.662 154.184C163.046 154.76 163.238 155.517 163.238 156.456C163.238 157.949 162.715 159.133 161.67 160.008C160.624 160.883 159.206 161.32 157.414 161.32ZM171.164 161.32C170.31 161.32 169.489 161.213 168.7 161C167.91 160.765 167.185 160.445 166.524 160.04C165.862 159.613 165.286 159.101 164.796 158.504L167.036 156.264C167.569 156.883 168.177 157.352 168.86 157.672C169.564 157.971 170.353 158.12 171.228 158.12C172.017 158.12 172.614 158.003 173.02 157.768C173.425 157.533 173.628 157.192 173.628 156.744C173.628 156.275 173.436 155.912 173.052 155.656C172.668 155.4 172.166 155.187 171.548 155.016C170.95 154.824 170.31 154.632 169.628 154.44C168.966 154.248 168.326 153.992 167.708 153.672C167.11 153.331 166.62 152.872 166.236 152.296C165.852 151.72 165.66 150.973 165.66 150.056C165.66 149.075 165.884 148.232 166.332 147.528C166.801 146.824 167.452 146.28 168.284 145.896C169.137 145.512 170.15 145.32 171.324 145.32C172.561 145.32 173.649 145.544 174.588 145.992C175.548 146.419 176.348 147.069 176.988 147.944L174.748 150.184C174.3 149.629 173.788 149.213 173.212 148.936C172.636 148.659 171.974 148.52 171.228 148.52C170.524 148.52 169.98 148.627 169.596 148.84C169.212 149.053 169.02 149.363 169.02 149.768C169.02 150.195 169.212 150.525 169.596 150.76C169.98 150.995 170.47 151.197 171.068 151.368C171.686 151.539 172.326 151.731 172.988 151.944C173.67 152.136 174.31 152.413 174.908 152.776C175.526 153.117 176.028 153.587 176.412 154.184C176.796 154.76 176.988 155.517 176.988 156.456C176.988 157.949 176.465 159.133 175.42 160.008C174.374 160.883 172.956 161.32 171.164 161.32Z" fill="#979797"/>
<path d="M60.784 91.52V78.72H117.232V91.52H60.784ZM82.544 55.552H95.6V114.56H82.544V55.552Z" fill="#A5A5A5"/>
</svg>
